<svg xmlns="http://www.w3.org/2000/svg" viewBox="0 0 80 53.33"><defs><style>.cls-1{fill:#fff;}</style></defs><g id="Layer_2" data-name="Layer 2"><g id="Capa_1" data-name="Capa 1"><path class="cls-1" d="M71.67,0H8.33A8.34,8.34,0,0,0,0,8.33V45a8.34,8.34,0,0,0,8.33,8.33H71.67A8.34,8.34,0,0,0,80,45V8.33A8.34,8.34,0,0,0,71.67,0Zm5,45a5,5,0,0,1-5,5H8.33a5,5,0,0,1-5-5V8.33a5,5,0,0,1,5-5H71.67a5,5,0,0,1,5,5V45Z"/><path class="cls-1" d="M78.33,10H1.67A1.67,1.67,0,0,0,0,11.67v10a1.66,1.66,0,0,0,1.67,1.66H78.33A1.66,1.66,0,0,0,80,21.67v-10A1.67,1.67,0,0,0,78.33,10ZM76.67,20H3.33V13.33H76.67V20Z"/><path class="cls-1" d="M31.67,33.33h-20a1.67,1.67,0,1,0,0,3.34h20a1.67,1.67,0,0,0,0-3.34Z"/><path class="cls-1" d="M31.67,40h-20a1.67,1.67,0,1,0,0,3.33h20a1.67,1.67,0,0,0,0-3.33Z"/><path class="cls-1" d="M65,30H61.67a5,5,0,0,0-5,5v3.33a5,5,0,0,0,5,5H65a5,5,0,0,0,5-5V35A5,5,0,0,0,65,30Zm1.67,8.33A1.67,1.67,0,0,1,65,40H61.67A1.67,1.67,0,0,1,60,38.33V35a1.67,1.67,0,0,1,1.67-1.67H65A1.67,1.67,0,0,1,66.67,35Z"/></g></g></svg>