<svg xmlns="http://www.w3.org/2000/svg" viewBox="0 0 512 374.26"><defs><style>.cls-1{fill:#fff;}</style></defs><g id="Layer_2" data-name="Layer 2"><g id="Capa_1" data-name="Capa 1"><path class="cls-1" d="M414.5,119.66H382.26L392,8.15c0-.2,0-.4,0-.6v0h0A7.5,7.5,0,0,0,387.48.62l-.07,0L386.9.4l-.2-.07-.43-.11L386,.15l-.39-.06-.37,0h-.06l-.39,0H231a7.5,7.5,0,0,0,0,15H376.32L361.4,186.38a0,0,0,0,0,0,0l-3.76,43.25H97l4.36-45H151a7.5,7.5,0,0,0,0-15H102.83l9.21-95h79a7.5,7.5,0,0,0,0-15H113.49L117.82,15H201a7.5,7.5,0,0,0,0-15H111a7.51,7.51,0,0,0-7.32,5.92.19.19,0,0,1,0,.07c0,.19-.06.38-.09.57s0,.12,0,.18,0,0,0,0L98.42,59.66H7.5a7.5,7.5,0,0,0,0,15H97l-9.2,95H61a7.5,7.5,0,0,0,0,15H86.31l-5,51.72v0l-7.75,80v.06c0,.1,0,.2,0,.31s0,.27,0,.41v0c0,.19,0,.38,0,.57a1.09,1.09,0,0,1,0,.18c0,.2.06.39.09.58l0,.17c0,.14.07.28.1.42s0,.2.08.3l0,.08a7.5,7.5,0,0,0,1.78,2.94l0,0,.25.23a7.25,7.25,0,0,0,1.74,1.19,2.93,2.93,0,0,0,.4.19l.12.05c.19.07.38.15.58.21h0c.22.07.44.12.67.17l.09,0q.33.06.66.09h0c.24,0,.49,0,.73,0h33.4a57.09,57.09,0,0,0,113.19,0H347.9a57.09,57.09,0,0,0,113.19,0h33.42a6.12,6.12,0,0,0,.74,0l.13,0,.57-.08.25-.06.44-.11.28-.1.37-.13.31-.14.32-.15.3-.17.31-.18.27-.19a3.3,3.3,0,0,0,.3-.22l.25-.2.3-.27.2-.19.3-.33c.06-.07.11-.12.16-.19s.21-.27.31-.41l.11-.15c.12-.18.23-.37.34-.56l0,0c.11-.21.22-.42.31-.64a1.46,1.46,0,0,0,.07-.19c.06-.16.12-.31.17-.47s.06-.21.09-.32l.1-.37.06-.35c0-.1,0-.2.05-.3.32-2.55,6.19-49.67,8.81-80.14,0,0,0-.06,0-.08.75-8.79,1.24-16.18,1.24-20.71A97.61,97.61,0,0,0,414.5,119.66Zm-33.54,15h30.68l-3.92,45H377ZM171,359.26a42.11,42.11,0,1,1,42.1-42.1A42.15,42.15,0,0,1,171,359.26Zm233.49,0a42.11,42.11,0,1,1,42.1-42.1A42.15,42.15,0,0,1,404.5,359.26Zm83.36-49.6H461.1a57.09,57.09,0,0,0-113.2,0H227.6a57.09,57.09,0,0,0-113.19,0H89.27l6.3-65H364.51c.25,0,.5,0,.75,0l.13,0,.59-.09.24-.06.45-.12.29-.1.37-.13.31-.14.33-.16.31-.17.3-.19.28-.19a3.15,3.15,0,0,0,.29-.22l.26-.21.28-.25.22-.23.27-.29.19-.24a3.81,3.81,0,0,0,.24-.32,2.2,2.2,0,0,0,.17-.25,2.39,2.39,0,0,0,.21-.34,1.82,1.82,0,0,0,.15-.27c.07-.12.12-.24.18-.36s.09-.19.13-.29.09-.24.13-.36l.11-.32.09-.36c0-.12.06-.23.08-.35s0-.24.06-.36,0-.25.05-.37a.13.13,0,0,1,0-.06l3.75-43.15H414.5c23,0,33.34,11.91,44.31,24.51,9.05,10.41,19.16,22,36.34,24.84C493,267.07,489.44,296.69,487.86,309.66ZM496.43,229c-11.14-2.27-18-10.11-26.31-19.65-10.39-11.93-23.07-26.5-47.38-29.21l3.88-44.55A82.63,82.63,0,0,1,497,217.16C497,220,496.79,224.06,496.43,229Z"/><path class="cls-1" d="M171,289.66a27.5,27.5,0,1,0,27.5,27.5A27.53,27.53,0,0,0,171,289.66Zm0,40a12.5,12.5,0,1,1,12.5-12.5A12.51,12.51,0,0,1,171,329.66Z"/><path class="cls-1" d="M404.5,289.66a27.5,27.5,0,1,0,27.5,27.5A27.52,27.52,0,0,0,404.5,289.66Zm0,40a12.5,12.5,0,1,1,12.5-12.5A12.51,12.51,0,0,1,404.5,329.66Z"/><path class="cls-1" d="M71,119.66H34.33a7.5,7.5,0,0,0,0,15H71a7.5,7.5,0,0,0,0-15Z"/></g></g></svg>