<svg xmlns="http://www.w3.org/2000/svg" viewBox="0 0 512 466.37"><defs><style>.cls-1{fill:#fff;}</style></defs><g id="Layer_2" data-name="Layer 2"><g id="Capa_1" data-name="Capa 1"><path class="cls-1" d="M391.73,109.94c0,15.52-11.29,24.95-19.54,31.87-3.12,2.62-8.93,7.41-8.92,9.19a12.5,12.5,0,0,1-12.59,12.61h-.11a12.53,12.53,0,0,1-12.69-12.4c-.11-13.75,9.92-22,18-28.75,6.32-5.31,10.47-9,10.47-12.47a12.56,12.56,0,0,0-25.12,0,12.7,12.7,0,1,1-25.39,0,38,38,0,0,1,75.9,0Zm-40.8,65.39A12.46,12.46,0,0,0,338.51,188v.09a12.43,12.43,0,0,0,12.42,12.65,12.72,12.72,0,0,0,0-25.44ZM95.05,263.76a12.7,12.7,0,0,0,0,25.39h1.06a12.7,12.7,0,1,0,0-25.39Zm44.12,0a12.7,12.7,0,0,0,0,25.39h1.06a12.7,12.7,0,0,0,0-25.39ZM512,61V203.89a61,61,0,0,1-61,61.28H286.42c-3.22,0-5.87,0-8.09-.07s-4.94-.06-6,0c-1.06.7-3.66,3.09-6.17,5.4-1,.92-2.12,1.92-3.34,3L216.29,316a13,13,0,0,1-21.65-9.38V172.08h-133a36.37,36.37,0,0,0-36.28,36.08V351c0,19.84,16.44,35.43,36.28,35.43H245.55a12.73,12.73,0,0,1,8.47,3.59l38,35V304.39a12.7,12.7,0,0,1,25.39,0V453.82a12.52,12.52,0,0,1-7.48,11.54,12.13,12.13,0,0,1-5,1,12.8,12.8,0,0,1-8.56-3.45l-55.66-51.06h-179C27.83,411.86,0,384.87,0,351V208.16c0-33.83,27.83-61.47,61.67-61.47h133V61c0-33.83,28.05-61,61.88-61H451.05A60.78,60.78,0,0,1,512,61Zm-25.39,0A35.37,35.37,0,0,0,451,25.39H256.52C236.69,25.39,220,41.17,220,61V277.89l25.53-23.07c1.18-1.08,2.5-2.06,3.47-3,11.65-10.73,14.63-12.45,29.84-12.14,2.07.05,4.54.06,7.55.06H451a35.6,35.6,0,0,0,35.57-35.89V61Z"/></g></g></svg>