<svg xmlns="http://www.w3.org/2000/svg" viewBox="0 0 511.84 512"><defs><style>.cls-1{fill:#fff;}</style></defs><g id="Layer_2" data-name="Layer 2"><g id="Layer_1-2" data-name="Layer 1"><path class="cls-1" d="M235.29,347.27a10,10,0,1,0-14.14,0A10,10,0,0,0,235.29,347.27Z"/><path class="cls-1" d="M188,110a110,110,0,1,0,110-110A110.09,110.09,0,0,0,188,110Zm199.94,0a90,90,0,1,1-90-90A90.08,90.08,0,0,1,387.89,110Z"/><path class="cls-1" d="M115.15,509a10,10,0,0,0,14.11.09l48.47-47.75a30.24,30.24,0,0,0,7.12-31l10.42-10.05a29.85,29.85,0,0,1,20.82-8.41H349a89.53,89.53,0,0,0,62.76-25.5c.69-.68-5.28,6.36,90.67-108.31a40,40,0,0,0-60.85-51.9l-59,60.63a40.17,40.17,0,0,0-31.08-14.88H240a128.89,128.89,0,0,0-50.06-10c-48.14,0-90.18,22.23-112.74,63.92a29.86,29.86,0,0,0-26.73,8.29L2.92,381.84a10,10,0,0,0,0,14.1Zm74.79-227.12a109.13,109.13,0,0,1,44,9.16,9.83,9.83,0,0,0,4,.84H351.49a20,20,0,1,1,0,40H269.92a10,10,0,0,0,0,20h81.57a40,40,0,0,0,40-40,41.23,41.23,0,0,0-.35-5.22c57.06-58.66,65.11-66.9,65.45-67.31a20,20,0,1,1,30.54,25.83l-89.67,107.2A69.63,69.63,0,0,1,349,391.89H216.09a49.73,49.73,0,0,0-34.7,14l-8.5,8.2L94.57,335.79C112.87,301.45,147.22,281.92,189.94,281.92ZM64.62,348.27A10,10,0,0,1,77,346.86c1.73,1.05-3.24-3.47,86.59,86.23a10,10,0,0,1,.06,14.09l-41.32,40.71-98.23-99Z"/><path class="cls-1" d="M285.92,50V61.7a30,30,0,0,0,10,58.27,10,10,0,0,1,0,20c-4.27,0-8.89-2.68-13-7.56a10,10,0,0,0-15.31,12.87,41.59,41.59,0,0,0,18.29,13V170a10,10,0,1,0,20,0V158.24a30,30,0,0,0-10-58.27,10,10,0,1,1,0-20c3.54,0,7.28,1.81,10.81,5.22a10,10,0,1,0,13.91-14.36,38.77,38.77,0,0,0-14.73-9.21V50a10,10,0,1,0-20,0Z"/></g></g></svg>